<svg version="1.2" xmlns="http://www.w3.org/2000/svg" viewBox="0 0 726 240" width="250" height="83"><style>tspan{white-space:pre}.a{font-size: 113px;fill: #2f3045;font-family: "Marsek Demi"}.b{fill:#28848f}</style><text style="transform:matrix(1,0,0,1,281.73,98.88)" ><tspan x="0" y="0" class="a">B</tspan><tspan  y="0" class="a">I</tspan><tspan  y="0" class="a">T</tspan><tspan  y="0" class="a">S</tspan><tspan  y="0" class="a">
</tspan><tspan x="0" y="135.6" class="a">BUFFER
</tspan></text><path class="b" d="m134.9 160.6c0-4.1 3.4-7.5 7.5-7.5h61.6c4.1 0 7.5 3.4 7.5 7.5v61.6c0 4.1-3.4 7.5-7.5 7.5h-61.6c-4.1 0-7.5-3.4-7.5-7.5z"/><path class="b" d="m177.9 116.1q-0.6 1.4-1.6 2.4-1.1 1.1-2.5 1.7-1.3 0.5-2.8 0.5h-48.4q-0.7 0-1.5 0.2-0.7 0.1-1.4 0.4-0.6 0.3-1.3 0.7-0.6 0.4-1.1 0.9l-32.5 31.9q-0.5 0.5-1 1.1-0.4 0.7-0.7 1.3-0.3 0.7-0.4 1.5-0.2 0.7-0.2 1.5v47.1q0 1.5-0.5 2.9-0.6 1.4-1.7 2.5-1 1-2.4 1.6-1.4 0.6-2.9 0.6h-61.5q-1.5 0-2.9-0.6-1.4-0.6-2.5-1.6-1-1.1-1.6-2.5-0.6-1.4-0.6-2.9v-61.5q0-1.5 0.6-2.9 0.6-1.4 1.6-2.4 1.1-1.1 2.5-1.7 1.4-0.5 2.9-0.5l48.3-0.1q0.8 0.1 1.5-0.1 0.7-0.1 1.4-0.4 0.7-0.3 1.3-0.7 0.6-0.4 1.1-0.9l32.5-31.9q0.5-0.5 1-1.1 0.4-0.7 0.7-1.3 0.3-0.7 0.4-1.5 0.2-0.7 0.2-1.5v-47.1q0-1.5 0.5-2.9 0.6-1.4 1.7-2.5 1-1 2.4-1.6 1.4-0.6 2.9-0.6h61.5q1.5 0 2.9 0.6 1.4 0.6 2.5 1.6 1 1.1 1.6 2.5 0.6 1.4 0.6 2.9v61.5q0 1.5-0.6 2.9z"/></svg>